<svg width="224" height="36" viewBox="0 0 224 36" fill="none" xmlns="http://www.w3.org/2000/svg">
<path d="M9.124 9.284C10.1467 9.284 11.0393 9.492 11.802 9.908C12.582 10.324 13.18 10.87 13.596 11.546V9.492H18.042V23.974C18.042 25.3087 17.7733 26.5133 17.236 27.588C16.716 28.68 15.91 29.5467 14.818 30.188C13.7433 30.8293 12.4 31.15 10.788 31.15C8.63867 31.15 6.89667 30.6387 5.562 29.616C4.22733 28.6107 3.46467 27.2413 3.274 25.508H7.668C7.80667 26.0627 8.136 26.496 8.656 26.808C9.176 27.1373 9.81733 27.302 10.58 27.302C11.4987 27.302 12.2267 27.0333 12.764 26.496C13.3187 25.976 13.596 25.1353 13.596 23.974V21.92C13.1627 22.596 12.5647 23.1507 11.802 23.584C11.0393 24 10.1467 24.208 9.124 24.208C7.928 24.208 6.84467 23.9047 5.874 23.298C4.90333 22.674 4.132 21.7987 3.56 20.672C3.00533 19.528 2.728 18.2107 2.728 16.72C2.728 15.2293 3.00533 13.9207 3.56 12.794C4.132 11.6673 4.90333 10.8007 5.874 10.194C6.84467 9.58733 7.928 9.284 9.124 9.284ZM13.596 16.746C13.596 15.6367 13.284 14.7613 12.66 14.12C12.0533 13.4787 11.308 13.158 10.424 13.158C9.54 13.158 8.786 13.4787 8.162 14.12C7.55533 14.744 7.252 15.6107 7.252 16.72C7.252 17.8293 7.55533 18.7133 8.162 19.372C8.786 20.0133 9.54 20.334 10.424 20.334C11.308 20.334 12.0533 20.0133 12.66 19.372C13.284 18.7307 13.596 17.8553 13.596 16.746ZM25.9645 11.91C26.4845 11.1127 27.1345 10.4887 27.9145 10.038C28.6945 9.57 29.5612 9.336 30.5145 9.336V14.042H29.2925C28.1832 14.042 27.3512 14.2847 26.7965 14.77C26.2418 15.238 25.9645 16.07 25.9645 17.266V24H21.5185V9.492H25.9645V11.91ZM46.5756 16.512C46.5756 16.928 46.5496 17.3613 46.4976 17.812H36.4356C36.5049 18.7133 36.7909 19.4067 37.2936 19.892C37.8136 20.36 38.4462 20.594 39.1916 20.594C40.3009 20.594 41.0722 20.126 41.5056 19.19H46.2376C45.9949 20.1433 45.5529 21.0013 44.9116 21.764C44.2876 22.5267 43.4989 23.1247 42.5456 23.558C41.5922 23.9913 40.5262 24.208 39.3476 24.208C37.9262 24.208 36.6609 23.9047 35.5516 23.298C34.4422 22.6913 33.5756 21.8247 32.9516 20.698C32.3276 19.5713 32.0156 18.254 32.0156 16.746C32.0156 15.238 32.3189 13.9207 32.9256 12.794C33.5496 11.6673 34.4162 10.8007 35.5256 10.194C36.6349 9.58733 37.9089 9.284 39.3476 9.284C40.7516 9.284 41.9996 9.57867 43.0916 10.168C44.1836 10.7573 45.0329 11.598 45.6396 12.69C46.2636 13.782 46.5756 15.056 46.5756 16.512ZM42.0256 15.342C42.0256 14.5793 41.7656 13.9727 41.2456 13.522C40.7256 13.0713 40.0756 12.846 39.2956 12.846C38.5502 12.846 37.9176 13.0627 37.3976 13.496C36.8949 13.9293 36.5829 14.5447 36.4616 15.342H42.0256ZM62.8571 16.512C62.8571 16.928 62.8311 17.3613 62.7791 17.812H52.7171C52.7864 18.7133 53.0724 19.4067 53.5751 19.892C54.0951 20.36 54.7277 20.594 55.4731 20.594C56.5824 20.594 57.3537 20.126 57.7871 19.19H62.5191C62.2764 20.1433 61.8344 21.0013 61.1931 21.764C60.5691 22.5267 59.7804 23.1247 58.8271 23.558C57.8737 23.9913 56.8077 24.208 55.6291 24.208C54.2077 24.208 52.9424 23.9047 51.8331 23.298C50.7237 22.6913 49.8571 21.8247 49.2331 20.698C48.6091 19.5713 48.2971 18.254 48.2971 16.746C48.2971 15.238 48.6004 13.9207 49.2071 12.794C49.8311 11.6673 50.6977 10.8007 51.8071 10.194C52.9164 9.58733 54.1904 9.284 55.6291 9.284C57.0331 9.284 58.2811 9.57867 59.3731 10.168C60.4651 10.7573 61.3144 11.598 61.9211 12.69C62.5451 13.782 62.8571 15.056 62.8571 16.512ZM58.3071 15.342C58.3071 14.5793 58.0471 13.9727 57.5271 13.522C57.0071 13.0713 56.3571 12.846 55.5771 12.846C54.8317 12.846 54.1991 13.0627 53.6791 13.496C53.1764 13.9293 52.8644 14.5447 52.7431 15.342H58.3071ZM74.3025 9.336C76.0012 9.336 77.3532 9.89067 78.3585 11C79.3812 12.092 79.8925 13.6 79.8925 15.524V24H75.4725V16.122C75.4725 15.1513 75.2212 14.3973 74.7185 13.86C74.2159 13.3227 73.5399 13.054 72.6905 13.054C71.8412 13.054 71.1652 13.3227 70.6625 13.86C70.1599 14.3973 69.9085 15.1513 69.9085 16.122V24H65.4625V9.492H69.9085V11.416C70.3592 10.7747 70.9659 10.272 71.7285 9.908C72.4912 9.52667 73.3492 9.336 74.3025 9.336ZM89.1441 24.208C87.8787 24.208 86.7521 23.9913 85.7641 23.558C84.7761 23.1247 83.9961 22.5353 83.4241 21.79C82.8521 21.0273 82.5314 20.178 82.4621 19.242H86.8561C86.9081 19.7447 87.1421 20.152 87.5581 20.464C87.9741 20.776 88.4854 20.932 89.0921 20.932C89.6467 20.932 90.0714 20.828 90.3661 20.62C90.6781 20.3947 90.8341 20.1087 90.8341 19.762C90.8341 19.346 90.6174 19.0427 90.1841 18.852C89.7507 18.644 89.0487 18.4187 88.0781 18.176C87.0381 17.9333 86.1714 17.682 85.4781 17.422C84.7847 17.1447 84.1867 16.72 83.6841 16.148C83.1814 15.5587 82.9301 14.77 82.9301 13.782C82.9301 12.95 83.1554 12.196 83.6061 11.52C84.0741 10.8267 84.7501 10.2807 85.6341 9.882C86.5354 9.48333 87.6014 9.284 88.8321 9.284C90.6521 9.284 92.0821 9.73467 93.1221 10.636C94.1794 11.5373 94.7861 12.7333 94.9421 14.224H90.8341C90.7647 13.7213 90.5394 13.3227 90.1581 13.028C89.7941 12.7333 89.3087 12.586 88.7021 12.586C88.1821 12.586 87.7834 12.69 87.5061 12.898C87.2287 13.0887 87.0901 13.3573 87.0901 13.704C87.0901 14.12 87.3067 14.432 87.7401 14.64C88.1907 14.848 88.8841 15.056 89.8201 15.264C90.8947 15.5413 91.7701 15.8187 92.4461 16.096C93.1221 16.356 93.7114 16.7893 94.2141 17.396C94.7341 17.9853 95.0027 18.7827 95.0201 19.788C95.0201 20.6373 94.7774 21.4 94.2921 22.076C93.8241 22.7347 93.1394 23.2547 92.2381 23.636C91.3541 24.0173 90.3227 24.208 89.1441 24.208ZM97.1161 16.746C97.1161 15.238 97.4195 13.9207 98.0261 12.794C98.6501 11.6673 99.5081 10.8007 100.6 10.194C101.709 9.58733 102.975 9.284 104.396 9.284C106.216 9.284 107.733 9.76067 108.946 10.714C110.177 11.6673 110.983 13.0107 111.364 14.744H106.632C106.233 13.6347 105.462 13.08 104.318 13.08C103.503 13.08 102.853 13.4007 102.368 14.042C101.883 14.666 101.64 15.5673 101.64 16.746C101.64 17.9247 101.883 18.8347 102.368 19.476C102.853 20.1 103.503 20.412 104.318 20.412C105.462 20.412 106.233 19.8573 106.632 18.748H111.364C110.983 20.4467 110.177 21.7813 108.946 22.752C107.715 23.7227 106.199 24.208 104.396 24.208C102.975 24.208 101.709 23.9047 100.6 23.298C99.5081 22.6913 98.6501 21.8247 98.0261 20.698C97.4195 19.5713 97.1161 18.254 97.1161 16.746ZM118.448 11.91C118.968 11.1127 119.618 10.4887 120.398 10.038C121.178 9.57 122.045 9.336 122.998 9.336V14.042H121.776C120.667 14.042 119.835 14.2847 119.28 14.77C118.726 15.238 118.448 16.07 118.448 17.266V24H114.002V9.492H118.448V11.91ZM139.059 16.512C139.059 16.928 139.033 17.3613 138.981 17.812H128.919C128.989 18.7133 129.275 19.4067 129.777 19.892C130.297 20.36 130.93 20.594 131.675 20.594C132.785 20.594 133.556 20.126 133.989 19.19H138.721C138.479 20.1433 138.037 21.0013 137.395 21.764C136.771 22.5267 135.983 23.1247 135.029 23.558C134.076 23.9913 133.01 24.208 131.831 24.208C130.41 24.208 129.145 23.9047 128.035 23.298C126.926 22.6913 126.059 21.8247 125.435 20.698C124.811 19.5713 124.499 18.254 124.499 16.746C124.499 15.238 124.803 13.9207 125.409 12.794C126.033 11.6673 126.9 10.8007 128.009 10.194C129.119 9.58733 130.393 9.284 131.831 9.284C133.235 9.284 134.483 9.57867 135.575 10.168C136.667 10.7573 137.517 11.598 138.123 12.69C138.747 13.782 139.059 15.056 139.059 16.512ZM134.509 15.342C134.509 14.5793 134.249 13.9727 133.729 13.522C133.209 13.0713 132.559 12.846 131.779 12.846C131.034 12.846 130.401 13.0627 129.881 13.496C129.379 13.9293 129.067 14.5447 128.945 15.342H134.509ZM155.341 16.512C155.341 16.928 155.315 17.3613 155.263 17.812H145.201C145.27 18.7133 145.556 19.4067 146.059 19.892C146.579 20.36 147.212 20.594 147.957 20.594C149.066 20.594 149.838 20.126 150.271 19.19H155.003C154.76 20.1433 154.318 21.0013 153.677 21.764C153.053 22.5267 152.264 23.1247 151.311 23.558C150.358 23.9913 149.292 24.208 148.113 24.208C146.692 24.208 145.426 23.9047 144.317 23.298C143.208 22.6913 142.341 21.8247 141.717 20.698C141.093 19.5713 140.781 18.254 140.781 16.746C140.781 15.238 141.084 13.9207 141.691 12.794C142.315 11.6673 143.182 10.8007 144.291 10.194C145.4 9.58733 146.674 9.284 148.113 9.284C149.517 9.284 150.765 9.57867 151.857 10.168C152.949 10.7573 153.798 11.598 154.405 12.69C155.029 13.782 155.341 15.056 155.341 16.512ZM150.791 15.342C150.791 14.5793 150.531 13.9727 150.011 13.522C149.491 13.0713 148.841 12.846 148.061 12.846C147.316 12.846 146.683 13.0627 146.163 13.496C145.66 13.9293 145.348 14.5447 145.227 15.342H150.791ZM166.786 9.336C168.485 9.336 169.837 9.89067 170.842 11C171.865 12.092 172.376 13.6 172.376 15.524V24H167.956V16.122C167.956 15.1513 167.705 14.3973 167.202 13.86C166.7 13.3227 166.024 13.054 165.174 13.054C164.325 13.054 163.649 13.3227 163.146 13.86C162.644 14.3973 162.392 15.1513 162.392 16.122V24H157.946V9.492H162.392V11.416C162.843 10.7747 163.45 10.272 164.212 9.908C164.975 9.52667 165.833 9.336 166.786 9.336ZM181.628 24.208C180.363 24.208 179.236 23.9913 178.248 23.558C177.26 23.1247 176.48 22.5353 175.908 21.79C175.336 21.0273 175.015 20.178 174.946 19.242H179.34C179.392 19.7447 179.626 20.152 180.042 20.464C180.458 20.776 180.969 20.932 181.576 20.932C182.131 20.932 182.555 20.828 182.85 20.62C183.162 20.3947 183.318 20.1087 183.318 19.762C183.318 19.346 183.101 19.0427 182.668 18.852C182.235 18.644 181.533 18.4187 180.562 18.176C179.522 17.9333 178.655 17.682 177.962 17.422C177.269 17.1447 176.671 16.72 176.168 16.148C175.665 15.5587 175.414 14.77 175.414 13.782C175.414 12.95 175.639 12.196 176.09 11.52C176.558 10.8267 177.234 10.2807 178.118 9.882C179.019 9.48333 180.085 9.284 181.316 9.284C183.136 9.284 184.566 9.73467 185.606 10.636C186.663 11.5373 187.27 12.7333 187.426 14.224H183.318C183.249 13.7213 183.023 13.3227 182.642 13.028C182.278 12.7333 181.793 12.586 181.186 12.586C180.666 12.586 180.267 12.69 179.99 12.898C179.713 13.0887 179.574 13.3573 179.574 13.704C179.574 14.12 179.791 14.432 180.224 14.64C180.675 14.848 181.368 15.056 182.304 15.264C183.379 15.5413 184.254 15.8187 184.93 16.096C185.606 16.356 186.195 16.7893 186.698 17.396C187.218 17.9853 187.487 18.7827 187.504 19.788C187.504 20.6373 187.261 21.4 186.776 22.076C186.308 22.7347 185.623 23.2547 184.722 23.636C183.838 24.0173 182.807 24.208 181.628 24.208ZM192.564 24.208C191.784 24.208 191.143 23.9827 190.64 23.532C190.155 23.064 189.912 22.492 189.912 21.816C189.912 21.1227 190.155 20.542 190.64 20.074C191.143 19.606 191.784 19.372 192.564 19.372C193.327 19.372 193.951 19.606 194.436 20.074C194.939 20.542 195.19 21.1227 195.19 21.816C195.19 22.492 194.939 23.064 194.436 23.532C193.951 23.9827 193.327 24.208 192.564 24.208ZM197.198 16.72C197.198 15.2293 197.475 13.9207 198.03 12.794C198.602 11.6673 199.373 10.8007 200.344 10.194C201.315 9.58733 202.398 9.284 203.594 9.284C204.617 9.284 205.509 9.492 206.272 9.908C207.052 10.324 207.65 10.87 208.066 11.546V9.492H212.512V24H208.066V21.946C207.633 22.622 207.026 23.168 206.246 23.584C205.483 24 204.591 24.208 203.568 24.208C202.389 24.208 201.315 23.9047 200.344 23.298C199.373 22.674 198.602 21.7987 198.03 20.672C197.475 19.528 197.198 18.2107 197.198 16.72ZM208.066 16.746C208.066 15.6367 207.754 14.7613 207.13 14.12C206.523 13.4787 205.778 13.158 204.894 13.158C204.01 13.158 203.256 13.4787 202.632 14.12C202.025 14.744 201.722 15.6107 201.722 16.72C201.722 17.8293 202.025 18.7133 202.632 19.372C203.256 20.0133 204.01 20.334 204.894 20.334C205.778 20.334 206.523 20.0133 207.13 19.372C207.754 18.7307 208.066 17.8553 208.066 16.746ZM218.224 7.984C217.444 7.984 216.803 7.75867 216.3 7.308C215.815 6.84 215.572 6.268 215.572 5.592C215.572 4.89867 215.815 4.32667 216.3 3.876C216.803 3.408 217.444 3.174 218.224 3.174C218.987 3.174 219.611 3.408 220.096 3.876C220.599 4.32667 220.85 4.89867 220.85 5.592C220.85 6.268 220.599 6.84 220.096 7.308C219.611 7.75867 218.987 7.984 218.224 7.984ZM220.434 9.492V24H215.988V9.492H220.434Z" fill="#1A1A1A"/>
<rect x="21" y="27" width="200" height="3" fill="#00A757"/>
</svg>
